HIERARCHY
ROOT Hips
{
  OFFSET 37.2432 22.0034 -144.562
  CHANNELS 6 Xposition Yposition Zposition Zrotation Xrotation Yrotation
  JOINT RightUpLeg
  {
    OFFSET -8.9458 -8.66707 0.101652
    CHANNELS 3 Zrotation Xrotation Yrotation
    JOINT RightLeg
    {
      OFFSET 0 -44.4227 1.3727
      CHANNELS 3 Zrotation Xrotation Yrotation
      JOINT RightFoot
      {
        OFFSET 0.253549 -42.0924 -1.46059
        CHANNELS 3 Zrotation Xrotation Yrotation
        JOINT RightToes
        {
          OFFSET 0.04 -4.41509 8.4991
          CHANNELS 3 Zrotation Xrotation Yrotation
          End Site
          {
            OFFSET -0.08 -0.137448 9.77979
          }
        }
      }
    }
  }
  JOINT Spine
  {
    OFFSET 0 11.8905 0
    CHANNELS 3 Zrotation Xrotation Yrotation
    JOINT Spine1
    {
      OFFSET 0 25.6574 0.127663
      CHANNELS 3 Zrotation Xrotation Yrotation
      JOINT HEad
      {
        OFFSET 0 8.73416 0.011341
        CHANNELS 3 Zrotation Xrotation Yrotation
        End Site
        {
          OFFSET -0.29 12.7742 2.51395
        }
      }
      JOINT LeftShoulder1
      {
        OFFSET 8.99 -0.362252 -0.22
        CHANNELS 3 Zrotation Xrotation Yrotation
        JOINT LeftArm
        {
          OFFSET 10.2827 -0.00338 0.322123
          CHANNELS 3 Zrotation Xrotation Yrotation
          JOINT LeftForeArm
          {
            OFFSET 32.7669 0.099144 -1.42434
            CHANNELS 3 Zrotation Xrotation Yrotation
            JOINT LeftHand
            {
              OFFSET 27.5643 0.085362 1.02216
              CHANNELS 3 Zrotation Xrotation Yrotation
              End Site
              {
                OFFSET 16.7443 -0.6 1.50291
              }
            }
          }
        }
      }
      JOINT RightShoulder
      {
        OFFSET -8.99 -0.362252 -0.22
        CHANNELS 3 Zrotation Xrotation Yrotation
        JOINT RightArm
        {
          OFFSET -10.2827 -0.00338 0.322123
          CHANNELS 3 Zrotation Xrotation Yrotation
          JOINT RightForeArm
          {
            OFFSET -32.8971 0.099144 -1.42434
            CHANNELS 3 Zrotation Xrotation Yrotation
            JOINT RightHand
            {
              OFFSET -27.4921 0.085362 1.02216
              CHANNELS 3 Zrotation Xrotation Yrotation
              End Site
              {
                OFFSET -16.6312 -0.6 1.50291
              }
            }
          }
        }
      }
    }
  }
  JOINT LeftUpLeg
  {
    OFFSET 8.9458 -8.66707 0.101652
    CHANNELS 3 Zrotation Xrotation Yrotation
    JOINT LeftLeg
    {
      OFFSET 0 -44.4227 1.3727
      CHANNELS 3 Zrotation Xrotation Yrotation
      JOINT LeftFoot
      {
        OFFSET -0.253549 -42.0924 -1.46059
        CHANNELS 3 Zrotation Xrotation Yrotation
        JOINT LeftToes
        {
          OFFSET -0.04 -4.41509 8.4991
          CHANNELS 3 Zrotation Xrotation Yrotation
          End Site
          {
            OFFSET 0.08 -0.047448 9.77979
          }
        }
      }
    }
  }
}
MOTION
Frames:	21
Frame Time:	0.0166667
35.624 43.3101 -148.451 6.48037 -38.9643 -36.1967 -30.1609 -41.1083 -14.3132 -150.234 35.2689 131.476 66.6303 12.7584 -22.0883 0.0462048 0.000533403 0.662642 -8.09612 43.0719 12.5316 0.029204 0.0230899 0.00648476 -37.6354 26.5105 41.1647 3.52843e-015 -1.78906e-015 -3.18055e-015 -140.258 -32.8148 -76.7464 -97.5307 45.7156 -35.0951 20.7288 2.04267 -73.1051 13.4453 17.8412 15.2305 77.5321 16.7536 74.4004 73.7664 20.397 45.3902 -4.66734 19.7584 47.07 21.1324 -39.7527 26.9426 89.7601 69.5132 -85.2888 -22.9366 3.22044 2.05843 -1.33827e-009 1.56028e-007 -4.86465e-009 
35.6834 45.9946 -148.433 6.53632 -38.9623 -35.925 -31.7054 -38.7619 -15.1237 -147.769 38.5124 128.128 69.2623 13.6448 -23.2011 0.0462048 0.000533403 0.662642 -8.21965 43.0708 12.2642 0.0292504 0.0208 0.00698503 -37.0893 26.0848 41.0419 1.19271e-015 -2.78299e-015 -3.18055e-015 -140.116 -33.0625 -76.726 -97.3767 45.8738 -35.1838 20.6213 1.87033 -73.1601 13.5869 18.0245 15.5384 77.385 16.5291 74.2604 73.7934 20.4562 45.552 -4.43491 19.8243 47.0026 18.3577 -37.2027 25.441 78.8088 70.2471 -72.8293 -21.4884 4.00344 2.10323 -1.33827e-009 1.56028e-007 -4.86465e-009 
35.8191 48.6199 -148.384 6.64037 -38.9119 -35.6234 -33.5705 -36.4104 -15.9964 -145.179 41.9786 124.465 71.5606 14.8125 -24.279 0.0462048 0.000533403 0.662642 -8.33447 42.7412 11.9238 0.0282928 0.02381 0.00802671 -36.6468 25.844 41.161 -4.22417e-015 2.78299e-015 3.18055e-015 -139.872 -33.5101 -76.5801 -97.255 45.9774 -35.2423 20.5247 1.73 -73.1798 13.7495 18.4604 15.8264 77.2339 16.3262 74.19 73.8048 20.4642 45.6962 -4.23767 19.8963 46.9456 16.1125 -34.7424 24.4475 66.6206 70.459 -59.1652 -19.4965 4.89722 1.96067 -1.33827e-009 1.56028e-007 -4.86465e-009 
35.9556 51.1439 -148.327 6.8016 -38.8263 -35.3055 -34.8632 -34.4944 -17.0073 -142.486 44.3764 120.509 74.3425 15.4284 -25.415 0.0462048 0.000533403 0.662642 -8.55106 43.7535 11.8907 0.0246 0.11705 0.0220094 -36.0051 24.5681 40.1178 -4.87022e-015 2.78299e-015 3.18055e-015 -140.365 -32.6743 -77.3142 -97.2157 46.0574 -35.273 20.4462 1.63617 -73.1554 13.6333 17.4048 16.0915 77.0462 16.2791 74.1833 73.7762 20.4805 45.8248 -4.11271 19.9599 46.9199 14.2824 -32.5087 23.7029 57.8862 69.0664 -49.4948 -18.8611 5.85313 2.0262 -1.33827e-009 1.56028e-007 -4.86465e-009 
36.1311 53.4512 -148.29 7.01402 -38.701 -34.9899 -35.9278 -32.996 -18.1204 -139.873 46.0206 116.53 77.3456 15.7311 -26.5375 0.0462048 0.000533403 0.662642 -8.7807 44.2307 11.7932 0.0141201 0.01841 0.00655965 -35.5613 23.7612 39.6451 2.38542e-015 7.95139e-016 -3.18055e-015 -140.532 -32.4031 -77.6326 -97.2225 46.1186 -35.2807 20.4015 1.59045 -73.0988 13.5965 17.0068 16.3007 76.8579 16.2387 74.2286 73.7418 20.5043 45.945 -4.07511 20.0099 46.9085 12.8824 -30.3901 23.4179 48.6814 67.6581 -39.4414 -17.2475 6.87738 1.80712 -1.33826e-009 1.56028e-007 -4.86465e-009 
36.3698 55.4488 -148.219 7.27213 -38.5415 -34.6753 -37.6357 -31.3074 -19.1261 -137.377 48.3429 112.583 79.7186 16.5629 -27.4641 0.0462048 0.000533403 0.662642 -9.02619 44.2523 11.6362 0.0137001 0.01649 0.00687966 -35.2129 23.1828 39.4446 7.95139e-016 -1.98785e-015 -3.18055e-015 -140.542 -32.3788 -77.7767 -97.233 46.1574 -35.2822 20.3897 1.57804 -73.016 13.5883 16.91 16.49 76.6719 16.1777 74.3262 73.7139 20.5292 46.0627 -4.09526 20.0216 46.9078 11.9485 -28.6016 23.553 40.6653 66.1942 -30.8753 -15.1807 7.7857 1.4255 -1.33827e-009 1.56028e-007 -4.86465e-009 
36.6356 57.1201 -148.028 7.55015 -38.3437 -34.3658 -40.3061 -29.0615 -19.8515 -134.383 52.2008 108.413 80.9683 17.7354 -27.5005 0.0462048 0.000533403 0.662642 -9.27131 43.9005 11.4252 0.0137001 0.01649 0.00687966 -34.9485 22.8576 39.5195 -5.56597e-015 -1.98785e-015 -3.18055e-015 -140.392 -32.6142 -77.7476 -97.2143 46.1696 -35.2885 20.4077 1.59577 -72.9347 13.622 17.139 16.6646 76.4894 16.0724 74.4678 73.6991 20.5432 46.1738 -4.12733 20.0044 46.9017 11.2895 -27.4341 23.731 37.5569 64.7003 -27.645 -14.5383 8.4357 1.40279 -1.33827e-009 1.56028e-007 -4.86465e-009 
36.8337 58.4738 -147.786 7.82606 -38.0907 -34.0746 -42.3133 -27.3384 -20.6378 -131.361 54.8239 104.317 82.9154 18.1059 -27.3134 0.0462048 0.000533403 0.662642 -9.50686 43.2321 11.1841 0.0137001 0.01649 0.00687966 -34.7423 22.7514 39.8135 -4.77083e-015 -1.59028e-015 -3.18055e-015 -140.101 -33.0569 -77.5871 -97.1442 46.1473 -35.3122 20.4412 1.62669 -72.8671 13.7067 17.6375 16.8336 76.3126 15.9139 74.6424 73.696 20.5271 46.2711 -4.1353 19.9511 46.9021 10.6862 -26.6972 23.8372 36.6953 63.3465 -26.7298 -14.6151 9.01306 1.56714 -1.33826e-009 1.56028e-007 -4.86465e-009 
36.9898 59.4273 -147.582 8.10568 -37.7736 -33.8026 -43.2685 -26.7865 -21.6181 -130.227 54.9865 101.709 86.1748 17.8453 -27.7272 0.0462048 0.000533403 0.662642 -9.66633 42.7125 10.9782 0.0137001 0.01649 0.00687966 -34.5865 22.545 39.9483 3.77691e-015 1.19271e-015 3.18055e-015 -139.95 -33.3041 -77.5583 -97.0271 46.081 -35.359 20.4726 1.66552 -72.8336 13.6977 17.9386 16.9938 76.158 15.744 74.8495 73.6851 20.467 46.3479 -4.10461 19.8847 46.9122 10.1764 -26.1983 24.112 34.191 62.3561 -23.9335 -13.5563 9.60658 1.38859 -1.33827e-009 1.56028e-007 -4.86465e-009 
37.2012 60.0653 -147.342 8.40097 -37.4004 -33.5344 -44.0488 -26.1293 -22.2819 -129.675 55.1715 99.278 89.6455 17.9137 -28.4917 0.0462048 0.000533403 0.662642 -9.77355 42.3093 10.8066 0.0137001 0.01649 0.00687966 -34.467 22.2481 39.9427 3.97569e-016 -2.78299e-015 -3.18055e-015 -139.92 -33.3829 -77.6631 -96.8725 45.9623 -35.4251 20.4898 1.70464 -72.8373 13.5966 18.0662 17.1606 76.051 15.5846 75.0948 73.6501 20.3537 46.405 -4.04347 19.8133 46.9402 9.87951 -26.0782 24.5708 31.5461 61.8695 -20.9773 -11.9759 10.0088 1.06373 -1.33827e-009 1.56028e-007 -4.86465e-009 
37.4623 60.5643 -146.987 8.69236 -36.9742 -33.2665 -45.1738 -24.6538 -22.327 -127.92 57.0371 95.9315 92.6467 18.3284 -28.7917 0.0462048 0.000533403 0.662642 -9.82012 42.0056 10.6583 0.0137001 0.01649 0.00687966 -34.373 21.8733 39.8165 1.78906e-015 -2.78299e-015 3.18055e-015 -140 -33.3163 -77.8972 -96.6954 45.7932 -35.5013 20.4961 1.74623 -72.8801 13.4032 18.047 17.3473 76.0088 15.454 75.3853 73.5792 20.1908 46.4507 -3.95396 19.7506 46.9812 9.74526 -26.4181 24.9156 31.7962 61.822 -21.1327 -11.6445 10.1716 1.10033 -1.33827e-009 1.56028e-007 -4.86465e-009 
37.6801 60.9898 -146.528 8.96874 -36.4953 -32.9959 -45.4314 -24.4161 -21.6603 -126.764 58.956 96.1166 89.0923 18.7361 -27.3401 0.0462048 0.000533403 0.662642 -9.80383 41.782 10.5286 0.0137001 0.01649 0.00687966 -34.2952 21.4335 39.5857 -5.76476e-015 -7.95139e-016 -0 -140.179 -33.1227 -78.2502 -96.5117 45.5899 -35.5797 20.5083 1.79479 -72.9418 13.124 17.9037 17.5623 76.0373 15.3639 75.7211 73.47 19.993 46.4944 -3.82104 19.7008 47.0252 9.74135 -26.7096 25.3963 30.1176 61.9959 -19.2563 -10.2295 10.1502 0.78876 -1.33826e-009 1.56028e-007 -4.86465e-009 
37.9039 61.4817 -146.039 9.20631 -35.9663 -32.7208 -45.8013 -23.8076 -21.0477 -124.341 60.9251 95.2852 85.9023 19.0099 -25.9348 0.0462048 0.000533403 0.662642 -9.70941 41.6295 10.4069 0.0137001 0.01649 0.00687966 -34.2246 20.9422 39.2636 7.95139e-016 -7.95139e-016 6.36111e-015 -140.447 -32.8209 -78.7057 -96.3378 45.3778 -35.6567 20.5358 1.86154 -72.989 12.7745 17.6555 17.8073 76.1306 15.3195 76.0946 73.33 19.7797 46.5406 -3.61313 19.6777 47.0522 9.81368 -27.1337 25.7029 30.2349 62.2431 -19.3275 -9.76007 10.1233 0.744117 -1.33827e-009 1.56028e-007 -4.86465e-009 
38.1239 62.0426 -145.529 9.38274 -35.3884 -32.443 -46.1604 -23.036 -20.3816 -121.299 62.9347 93.9659 83.0148 19.2007 -24.5494 0.0462048 0.000533403 0.662642 -9.52402 41.5357 10.2898 0.0137001 0.01649 0.00687966 -34.1512 20.4123 38.8627 1.76556e-031 1.59028e-015 -6.36111e-015 -140.787 -32.4354 -79.244 -96.1891 45.1795 -35.7331 20.5815 1.96052 -72.9769 12.3746 17.3183 18.0749 76.2758 15.3232 76.4964 73.1719 19.5694 46.5854 -3.31252 19.701 47.0406 9.76873 -27.526 25.7404 30.7911 62.3382 -19.7592 -9.72951 10.1782 0.785262 -1.33827e-009 1.56028e-007 -4.86465e-009 
38.3795 62.6783 -145.022 9.49706 -34.7647 -32.1476 -46.4368 -22.269 -19.5924 -118.107 64.9916 92.5138 80.3696 19.3256 -23.1975 0.0462048 0.000533403 0.662642 -9.24212 41.4827 10.1644 0.0137001 0.01649 0.00687966 -34.0655 19.8507 38.395 3.18055e-015 1.59028e-015 6.36111e-015 -141.175 -31.9941 -79.8442 -96.0699 45.0143 -35.8163 20.6656 2.10747 -72.8621 11.9357 16.9028 18.3518 76.4589 15.3723 76.921 73.0033 19.3816 46.6209 -2.94988 19.7959 46.9732 9.61855 -27.6139 25.7307 27.9385 62.1119 -16.5331 -8.28949 10.307 0.412631 -1.33826e-009 1.56028e-007 -4.86465e-009 
38.5913 63.3851 -144.532 9.56605 -34.1032 -31.8247 -46.3277 -21.8661 -18.7822 -117.612 66.0638 93.201 78.4173 19.3016 -22.3128 0.0462048 0.000533403 0.662642 -8.88656 41.4467 10.0363 0.0137001 0.01649 0.00687966 -33.9564 19.2592 37.8724 -0 -7.95139e-016 -0 -141.578 -31.5282 -80.4895 -95.9605 44.9002 -35.9246 20.8396 2.30582 -72.6078 11.4555 16.4164 18.6223 76.672 15.4594 77.3727 72.8161 19.24 46.6421 -2.61114 19.9654 46.8461 9.58262 -27.6466 25.4941 26.2921 61.8229 -14.6657 -7.87557 10.5325 0.233387 -1.33827e-009 1.56028e-007 -4.86465e-009 
38.7916 64.0976 -143.996 9.60205 -33.3986 -31.4866 -46.4939 -21.6754 -18.067 -116.867 67.6147 94.0616 76.1729 19.0027 -20.8602 0.0462048 0.000533403 0.662642 -8.49157 41.3921 9.93767 0.0137001 0.01649 0.00687966 -33.8091 18.6354 37.307 -4.77083e-015 0 6.36111e-015 -141.959 -31.0688 -81.177 -95.8114 44.8558 -36.0872 21.1762 2.5468 -72.1821 10.9233 15.8638 18.87 76.9153 15.5751 77.8681 72.5822 19.1735 46.653 -2.41939 20.1895 46.6629 9.53029 -27.6262 25.0126 25.0215 61.5118 -13.2023 -8.0528 10.7297 0.141818 -1.33826e-009 1.56028e-007 -4.86465e-009 
38.9994 64.844 -143.392 9.53178 -30.6401 -30.7058 -46.2174 -21.7547 -18.8426 -114.045 70.1366 92.7738 73.587 18.7342 -19.1901 0.0462048 0.000533403 0.662642 -6.39199 39.6628 8.9794 0.0137001 0.01649 0.00687966 -33.6225 17.9889 36.7192 -1.07344e-014 1.59028e-015 -0 -142.293 -30.6682 -81.8947 -95.5629 44.9249 -36.3328 21.7733 2.81767 -71.5524 10.3424 15.2699 19.0536 77.1709 15.7223 78.4151 72.2553 19.2394 46.6751 -2.53184 20.4435 46.4309 10.3944 -29.3711 24.0817 23.8865 61.223 -11.8417 -8.55251 10.8168 0.105928 -1.33827e-009 1.56028e-007 -4.86465e-009 
39.1575 65.6433 -142.794 9.39941 -28.263 -30.0245 -45.7137 -21.7125 -19.1676 -113.091 72.0884 92.9112 71.5763 18.3818 -17.9132 0.0462048 0.000533403 0.662642 -4.68195 38.1736 8.33996 0.0137001 0.01649 0.00687966 -33.3891 17.3256 36.1234 -1.19271e-015 0 -3.18055e-015 -142.567 -30.3691 -82.6547 -95.134 45.1693 -36.6938 22.7462 3.11013 -70.677 9.72282 14.6468 19.1507 77.437 15.8906 79.0147 71.7625 19.5129 46.7452 -3.13532 20.7062 46.1549 11.0292 -30.7332 22.9709 22.6459 60.8356 -10.3523 -9.22762 10.8712 0.0862364 -1.33826e-009 1.56028e-007 -4.86465e-009 
39.2947 66.5302 -142.108 9.20693 -26.2173 -29.427 -45.2826 -20.8633 -19.069 -107.783 75.0879 88.6329 69.0731 17.9946 -16.3195 0.0462048 0.000533403 0.662642 -3.49461 36.4653 8.05782 0.0137001 0.01649 0.00687966 -32.9395 16.9636 35.7662 -7.95139e-016 -2.38542e-015 -3.18055e-015 -142.381 -30.7901 -83.2961 -90.2882 49.1193 -40.3114 35.5573 14.4801 -64.4268 9.2014 14.3401 19.1243 77.8043 15.9195 79.8038 71.1853 19.97 47.2538 -4.44666 21.0621 45.8683 11.4155 -31.7355 21.6762 21.3184 60.4104 -8.74241 -9.93308 10.7785 0.0825095 -1.33827e-009 1.56028e-007 -4.86465e-009 
39.3877 67.5561 -141.349 8.95431 -24.4426 -28.898 -44.8726 -19.5508 -18.6706 -96.9525 78.2986 78.7533 66.4023 17.4251 -14.6149 0.0462048 0.000533403 0.662642 -2.72658 34.5876 8.04569 0.0137001 0.01649 0.00687966 -32.2702 16.8343 35.5923 1.59028e-015 1.59028e-015 6.36111e-015 -141.857 -31.5754 -83.9712 -81.3171 54.5436 -46.9664 29.6441 -0.239338 -63.3277 8.9475 14.3316 19.0746 78.1167 15.6932 80.5671 67.4375 24.6155 48.6245 -15.7567 31.8145 37.9221 11.6015 -32.3234 20.2218 19.7458 59.8097 -6.86305 -10.5671 10.6011 0.0708624 -1.33826e-009 1.56028e-007 -4.86465e-009 
